<svg viewBox="0 0 400 300" xmlns="http://www.w3.org/2000/svg">
  <rect id="background" class="background" width="400" height="300" fill="#f5f5f5"/>
  
  <circle id="geo-circle-1" class="primary" cx="50" cy="40" r="20" fill="#1a1a1a"/>
  <rect id="geo-square-1" class="secondary" x="100" y="20" width="35" height="35" fill="#333333"/>
  <polygon id="geo-triangle-1" class="accent" points="200,10 220,50 180,50" fill="#ff6b6b"/>
  <polygon id="geo-diamond-1" class="text" points="280,25 300,45 280,65 260,45" fill="#666666"/>
  <circle id="geo-circle-2" class="primary" cx="350" cy="40" r="20" fill="#1a1a1a"/>
  
  <rect id="geo-square-2" class="accent" x="30" y="70" width="35" height="35" fill="#ff6b6b"/>
  <circle id="geo-circle-3" class="secondary" cx="130" cy="88" r="18" fill="#333333"/>
  <polygon id="geo-diamond-2" class="primary" points="200,70 220,90 200,110 180,90" fill="#1a1a1a"/>
  <rect id="geo-square-3" class="text" x="260" y="70" width="35" height="35" fill="#666666"/>
  <polygon id="geo-triangle-2" class="accent" points="350,70 370,110 330,110" fill="#ff6b6b"/>
  
  <circle id="geo-circle-4" class="text" cx="50" cy="140" r="20" fill="#666666"/>
  <polygon id="geo-diamond-3" class="secondary" points="130,120 150,140 130,160 110,140" fill="#333333"/>
  <rect id="geo-square-4" class="primary" x="180" y="120" width="35" height="35" fill="#1a1a1a"/>
  <circle id="geo-circle-5" class="accent" cx="280" cy="140" r="18" fill="#ff6b6b"/>
  <polygon id="geo-triangle-3" class="secondary" points="350,120 370,160 330,160" fill="#333333"/>
  
  <path id="wave-1" class="primary" d="M0 200 Q50 180 100 200 Q150 220 200 200 Q250 180 300 200 Q350 220 400 200" stroke="#1a1a1a" stroke-width="3" fill="none"/>
  <path id="wave-2" class="secondary" d="M0 220 Q50 200 100 220 Q150 240 200 220 Q250 200 300 220 Q350 240 400 220" stroke="#333333" stroke-width="3" fill="none"/>
  <path id="wave-3" class="accent" d="M0 240 Q50 220 100 240 Q150 260 200 240 Q250 220 300 240 Q350 260 400 240" stroke="#ff6b6b" stroke-width="3" fill="none"/>
  
  <line id="grid-v1" class="text" x1="100" y1="0" x2="100" y2="300" stroke="#666666" stroke-width="1" opacity="0.3"/>
  <line id="grid-v2" class="text" x1="200" y1="0" x2="200" y2="300" stroke="#666666" stroke-width="1" opacity="0.3"/>
  <line id="grid-v3" class="text" x1="300" y1="0" x2="300" y2="300" stroke="#666666" stroke-width="1" opacity="0.3"/>
  <line id="grid-h1" class="text" x1="0" y1="75" x2="400" y2="75" stroke="#666666" stroke-width="1" opacity="0.3"/>
  <line id="grid-h2" class="text" x1="0" y1="150" x2="400" y2="150" stroke="#666666" stroke-width="1" opacity="0.3"/>
  <line id="grid-h3" class="text" x1="0" y1="225" x2="400" y2="225" stroke="#666666" stroke-width="1" opacity="0.3"/>
</svg>
