<svg viewBox="0 0 400 300" xmlns="http://www.w3.org/2000/svg">
  <rect id="background" class="background" width="400" height="300" fill="#1a1a2e"/>

  <circle id="deco-star-1" class="accent" cx="30" cy="30" r="3" fill="#ffd700"/>
  <circle id="deco-star-2" class="accent" cx="60" cy="50" r="2" fill="#ffd700"/>
  <circle id="deco-star-3" class="accent" cx="350" cy="40" r="3" fill="#ffd700"/>
  <circle id="deco-star-4" class="accent" cx="380" cy="25" r="2" fill="#ffd700"/>

  <rect id="film-strip-left" class="primary" x="20" y="80" width="30" height="140" fill="#0f0f1a"/>
  <rect id="film-hole-1" class="secondary" x="25" y="90" width="20" height="15" fill="#333"/>
  <rect id="film-hole-2" class="secondary" x="25" y="115" width="20" height="15" fill="#333"/>
  <rect id="film-hole-3" class="secondary" x="25" y="140" width="20" height="15" fill="#333"/>
  <rect id="film-hole-4" class="secondary" x="25" y="165" width="20" height="15" fill="#333"/>
  <rect id="film-hole-5" class="secondary" x="25" y="190" width="20" height="15" fill="#333"/>

  <rect id="film-strip-right" class="primary" x="350" y="80" width="30" height="140" fill="#0f0f1a"/>
  <rect id="film-hole-6" class="secondary" x="355" y="90" width="20" height="15" fill="#333"/>
  <rect id="film-hole-7" class="secondary" x="355" y="115" width="20" height="15" fill="#333"/>
  <rect id="film-hole-8" class="secondary" x="355" y="140" width="20" height="15" fill="#333"/>
  <rect id="film-hole-9" class="secondary" x="355" y="165" width="20" height="15" fill="#333"/>
  <rect id="film-hole-10" class="secondary" x="355" y="190" width="20" height="15" fill="#333"/>

  <circle id="camera-lens-outer" class="secondary" cx="200" cy="130" r="55" fill="#16213e"/>
  <circle id="camera-lens-inner" class="primary" cx="200" cy="130" r="40" fill="#0f3460"/>
  <circle id="camera-lens-center" class="accent" cx="200" cy="130" r="20" fill="#e94560"/>

  <text id="main-title" class="text" x="200" y="220" text-anchor="middle" font-family="Arial Black, sans-serif" font-size="36" font-weight="bold" fill="#ffffff" data-fixed-color="black">MOVIE</text>

  <text id="subtitle" class="secondary" x="200" y="245" text-anchor="middle" font-family="Arial, sans-serif" font-size="14" fill="#a0a0a0" data-fixed-color="black">电影之夜 · 光影传奇</text>

  <rect id="deco-line" class="accent" x="120" y="260" width="160" height="2" fill="#e94560"/>

  <text id="date" class="primary" x="200" y="285" text-anchor="middle" font-family="Arial, sans-serif" font-size="12" fill="#888888" data-fixed-color="black">2026.02.16 首映</text>
</svg>