<svg viewBox="0 0 400 300" xmlns="http://www.w3.org/2000/svg">
  <rect id="background" class="background" width="400" height="300" fill="#f5f5f5"/>
  
  <circle id="deco-circle-1" class="primary" cx="60" cy="75" r="36" fill="#1a1a1a"/>
  <circle id="deco-circle-2" class="accent" cx="300" cy="45" r="45" fill="#ff6b6b"/>
  <circle id="deco-circle-3" class="secondary" cx="100" cy="195" r="30" fill="#333333"/>
  <circle id="deco-circle-4" class="primary" cx="280" cy="210" r="39" fill="#1a1a1a"/>
  <circle id="deco-circle-5" class="accent" cx="340" cy="135" r="24" fill="#ff6b6b"/>
  
  <path id="stem" class="stroke" d="M200 280 Q200 200 200 150 Q200 100 180 80" stroke="#666666" stroke-width="4" fill="none"/>
  <path id="stem-branch" class="stroke" d="M200 180 Q240 160 260 170" stroke="#666666" stroke-width="3" fill="none"/>
  
  <ellipse id="leaf-1" class="accent" cx="180" cy="80" rx="25" ry="40" fill="#ff6b6b" transform="rotate(-30 180 80)"/>
  <ellipse id="leaf-2" class="primary" cx="260" cy="170" rx="20" ry="35" fill="#1a1a1a" transform="rotate(20 260 170)"/>
  <ellipse id="leaf-3" class="secondary" cx="185" cy="130" rx="18" ry="30" fill="#333333" transform="rotate(-45 185 130)"/>
  
  <circle id="flower-center" class="accent" cx="180" cy="80" r="8" fill="#ff6b6b"/>
  
  <path id="grass-1" class="primary" d="M50 300 Q55 270 60 300 Q65 270 70 300" stroke="#1a1a1a" stroke-width="2" fill="none"/>
  <path id="grass-2" class="secondary" d="M330 300 Q335 275 340 300 Q345 275 350 300" stroke="#333333" stroke-width="2" fill="none"/>
  <path id="grass-3" class="accent" d="M360 300 Q365 280 370 300 Q375 280 380 300" stroke="#ff6b6b" stroke-width="2" fill="none"/>
</svg>
